<svg xmlns="http://www.w3.org/2000/svg" viewBox="0 -1000 13360 1200" preserveAspectRatio="xMinYMid meet">
  <g transform="scale(1, -1)" fill="#1a1a1a">
    <path transform="translate(0, 0)" d="M1144 800 1073 629H1016L830 161Q791 71 757 41Q712 0 624 0H510L414 407L251 0H-101L66 166L269 677L160 800H566L665 402L820 800Z"/>
    <path transform="translate(916, 0)" d="M949 679 739 146Q716 89 662 46Q602 0 540 0H150L49 125L272 683Q292 734 362 769Q426 800 490 800H847ZM668 635H521L332 164H479Z"/>
    <path transform="translate(1746, 0)" d="M955 682Q929 604 881 476Q871 453 847.0 427.0Q823 401 778 379Q755 368 681 353Q783 295 783 238Q783 227 754 161H841Q802 71 768 41Q723 0 635 0H414L532 270L393 334L325 161H412Q373 71 339 41Q294 0 206 0H-101L66 166L269 677L160 800L834 799ZM664 625H516L469 489H611Z"/>
    <path transform="translate(2659, 0)" d="M1047 799 951 553H734L772 639H684L494 162H582L564 118Q537 52 499 30Q448 0 320 0H50L217 166L420 640H339L301 553H85L195 800Z"/>
    <path transform="translate(3404, 0)" d="M1060 800 998 646H944L751 161H838L819 117Q770 0 632 0H417L556 351H401L325 161H412L393 117Q344 0 206 0H-101L66 166L269 677L160 800H583L455 503H611L703 724L637 800Z"/>
    <path transform="translate(4689, 0)" d="M1421 800 1355 646H1297Q1226 522 1084 281Q1056 233 1028 186Q979 107 932 61Q868 0 808 0H542L623 304Q595 253 567 202Q517 116 470 67Q406 -1 346 -1L0 0L201 675L113 800H505L327 223L636 727L563 800H932L779 222L1075 727L1002 800Z"/>
    <path transform="translate(5929, 0)" d="M970 800 873 553H643L678 640H523L463 488H673L613 338H402L334 167H489L531 273H761L714 155Q682 75 626 42Q559 1 422 1L-101 0L66 166L269 677L160 800Z"/>
    <path transform="translate(6732, 0)" d="M959 800 865 565H631L658 633H504L441 481H732Q823 481 823 409Q823 382 811 353L724 140Q701 83 655 44Q604 0 548 0H0L98 246H355L325 169H470L536 333H276L163 460L251 683Q272 735 343 769Q407 800 469 800Z"/>
    <path transform="translate(7550, 0)" d="M1047 799 951 553H734L772 639H684L494 162H582L564 118Q537 52 499 30Q448 0 320 0H50L217 166L420 640H339L301 553H85L195 800Z"/>
    <path transform="translate(8667, 0)" d="M959 676 745 140Q724 86 677 45Q625 0 569 0H-101L66 166L269 677L160 800H847ZM676 638H527L334 170H487Z"/>
    <path transform="translate(9507, 0)" d="M970 800 873 553H643L678 640H523L463 488H673L613 338H402L334 167H489L531 273H761L714 155Q682 75 626 42Q559 1 422 1L-101 0L66 166L269 677L160 800Z"/>
    <path transform="translate(10310, 0)" d="M959 800 865 565H631L658 633H504L441 481H732Q823 481 823 409Q823 382 811 353L724 140Q701 83 655 44Q604 0 548 0H0L98 246H355L325 169H470L536 333H276L163 460L251 683Q272 735 343 769Q407 800 469 800Z"/>
    <path transform="translate(11128, 0)" d="M627 800 564 646H514L322 161H409L390 117Q341 0 203 0H-101L66 166L269 677L160 800Z"/>
    <path transform="translate(11610, 0)" d="M954 679 902 552H635L668 635H521L332 164H479L530 290H457L518 440H859L739 146Q716 89 661 46Q602 0 540 0H150L49 125L272 683Q292 734 363 769Q426 800 490 800H852Z"/>
    <path transform="translate(12444, 0)" d="M1144 800 1073 629H1016L830 161Q791 71 757 41Q712 0 624 0H510L414 407L251 0H-101L66 166L269 677L160 800H566L665 402L820 800Z"/>
  </g>
</svg>